<svg width="1141" height="40" viewBox="0 0 1141 40" fill="none" xmlns="http://www.w3.org/2000/svg">
<path d="M9.698 29.286C8.398 29.286 7.24533 29.1213 6.24 28.792C5.252 28.4453 4.42 27.9427 3.744 27.284C3.068 26.6253 2.55667 25.802 2.21 24.814C1.88067 23.8087 1.716 22.6473 1.716 21.33V12.49C1.716 11.814 1.88933 11.3027 2.236 10.956C2.58267 10.6093 3.08533 10.436 3.744 10.436C4.38533 10.436 4.87933 10.6093 5.226 10.956C5.57267 11.3027 5.746 11.814 5.746 12.49V21.356C5.746 22.8467 6.084 23.9733 6.76 24.736C7.436 25.4813 8.41533 25.854 9.698 25.854C10.9807 25.854 11.9513 25.4813 12.61 24.736C13.286 23.9733 13.624 22.8467 13.624 21.356V12.49C13.624 11.814 13.7973 11.3027 14.144 10.956C14.4907 10.6093 14.9847 10.436 15.626 10.436C16.2673 10.436 16.7527 10.6093 17.082 10.956C17.4287 11.3027 17.602 11.814 17.602 12.49V21.33C17.602 23.0807 17.2987 24.554 16.692 25.75C16.1027 26.9287 15.2187 27.8127 14.04 28.402C12.8787 28.9913 11.4313 29.286 9.698 29.286ZM23.0403 29.234C22.4336 29.234 21.9656 29.0693 21.6363 28.74C21.3243 28.3933 21.1683 27.908 21.1683 27.284V12.464C21.1683 11.8053 21.3243 11.3027 21.6363 10.956C21.9656 10.6093 22.3989 10.436 22.9363 10.436C23.4043 10.436 23.7596 10.5313 24.0023 10.722C24.2623 10.8953 24.5569 11.19 24.8863 11.606L34.0123 23.228H33.3103V12.36C33.3103 11.7533 33.4663 11.2853 33.7783 10.956C34.1076 10.6093 34.5756 10.436 35.1823 10.436C35.7889 10.436 36.2483 10.6093 36.5603 10.956C36.8896 11.2853 37.0543 11.7533 37.0543 12.36V27.362C37.0543 27.934 36.9069 28.3933 36.6123 28.74C36.3176 29.0693 35.9189 29.234 35.4163 29.234C34.9309 29.234 34.5409 29.1387 34.2463 28.948C33.9689 28.7573 33.6656 28.454 33.3363 28.038L24.2363 16.416H24.9123V27.284C24.9123 27.908 24.7563 28.3933 24.4443 28.74C24.1323 29.0693 23.6643 29.234 23.0403 29.234ZM42.7724 29.234C42.1138 29.234 41.6111 29.052 41.2644 28.688C40.9178 28.324 40.7444 27.8127 40.7444 27.154V12.516C40.7444 11.8573 40.9178 11.346 41.2644 10.982C41.6111 10.618 42.1138 10.436 42.7724 10.436C43.4138 10.436 43.9078 10.618 44.2544 10.982C44.6011 11.346 44.7744 11.8573 44.7744 12.516V27.154C44.7744 27.8127 44.6011 28.324 44.2544 28.688C43.9251 29.052 43.4311 29.234 42.7724 29.234ZM55.0152 29.286C54.2872 29.286 53.5419 29.2253 52.7792 29.104C52.0339 29 51.3145 28.844 50.6212 28.636C49.9452 28.428 49.3385 28.168 48.8012 27.856C48.4199 27.648 48.1512 27.3793 47.9952 27.05C47.8392 26.7033 47.7785 26.3567 47.8132 26.01C47.8652 25.6633 47.9952 25.36 48.2032 25.1C48.4285 24.8227 48.7059 24.6493 49.0352 24.58C49.3819 24.4933 49.7632 24.554 50.1792 24.762C50.8899 25.1607 51.6612 25.4553 52.4932 25.646C53.3425 25.8367 54.1832 25.932 55.0152 25.932C56.2805 25.932 57.1819 25.7413 57.7192 25.36C58.2565 24.9613 58.5252 24.4673 58.5252 23.878C58.5252 23.3753 58.3345 22.9767 57.9532 22.682C57.5719 22.3873 56.9045 22.136 55.9512 21.928L53.0132 21.304C51.3492 20.9573 50.1099 20.368 49.2952 19.536C48.4979 18.6867 48.0992 17.5773 48.0992 16.208C48.0992 15.3413 48.2812 14.5527 48.6452 13.842C49.0092 13.1313 49.5205 12.516 50.1792 11.996C50.8379 11.476 51.6179 11.0773 52.5192 10.8C53.4379 10.5227 54.4432 10.384 55.5352 10.384C56.5059 10.384 57.4592 10.5053 58.3952 10.748C59.3312 10.9733 60.1545 11.3113 60.8652 11.762C61.2119 11.97 61.4459 12.2387 61.5672 12.568C61.7059 12.88 61.7492 13.2007 61.6972 13.53C61.6625 13.842 61.5325 14.1193 61.3072 14.362C61.0992 14.6047 60.8305 14.7607 60.5012 14.83C60.1719 14.8993 59.7732 14.8213 59.3052 14.596C58.7332 14.3013 58.1265 14.0847 57.4852 13.946C56.8439 13.8073 56.1852 13.738 55.5092 13.738C54.7812 13.738 54.1572 13.8333 53.6372 14.024C53.1345 14.2147 52.7445 14.4833 52.4672 14.83C52.2072 15.1767 52.0772 15.5753 52.0772 16.026C52.0772 16.5287 52.2592 16.936 52.6232 17.248C52.9872 17.56 53.6199 17.8113 54.5212 18.002L57.4592 18.626C59.1579 18.99 60.4232 19.5793 61.2552 20.394C62.0872 21.1913 62.5032 22.2487 62.5032 23.566C62.5032 24.4327 62.3299 25.2213 61.9832 25.932C61.6365 26.6253 61.1339 27.2233 60.4752 27.726C59.8165 28.2287 59.0279 28.6187 58.1092 28.896C57.1905 29.156 56.1592 29.286 55.0152 29.286ZM73.6214 29.286C71.8188 29.286 70.2328 28.896 68.8634 28.116C67.5114 27.3187 66.4541 26.2093 65.6914 24.788C64.9461 23.3667 64.5734 21.7113 64.5734 19.822C64.5734 18.3833 64.7814 17.092 65.1974 15.948C65.6308 14.7867 66.2461 13.7987 67.0434 12.984C67.8408 12.152 68.7941 11.5107 69.9034 11.06C71.0301 10.6093 72.2694 10.384 73.6214 10.384C75.4588 10.384 77.0534 10.774 78.4054 11.554C79.7574 12.334 80.8061 13.4347 81.5514 14.856C82.3141 16.26 82.6954 17.9067 82.6954 19.796C82.6954 21.2347 82.4788 22.5347 82.0454 23.696C81.6121 24.8573 80.9968 25.854 80.1994 26.686C79.4021 27.518 78.4488 28.1593 77.3394 28.61C76.2301 29.0607 74.9908 29.286 73.6214 29.286ZM73.6214 25.854C74.6441 25.854 75.5108 25.62 76.2214 25.152C76.9494 24.6667 77.5041 23.9733 77.8854 23.072C78.2841 22.1533 78.4834 21.07 78.4834 19.822C78.4834 17.9153 78.0588 16.442 77.2094 15.402C76.3601 14.3447 75.1641 13.816 73.6214 13.816C72.6161 13.816 71.7494 14.05 71.0214 14.518C70.2934 14.986 69.7388 15.6707 69.3574 16.572C68.9761 17.4733 68.7854 18.5567 68.7854 19.822C68.7854 21.7113 69.2101 23.1933 70.0594 24.268C70.9088 25.3253 72.0961 25.854 73.6214 25.854ZM95.1545 33.914C94.5305 33.914 94.0452 33.7407 93.6985 33.394C93.3692 33.0647 93.2045 32.5793 93.2045 31.938V12.438C93.2045 11.7793 93.3692 11.2853 93.6985 10.956C94.0452 10.6093 94.5305 10.436 95.1545 10.436C95.7785 10.436 96.2638 10.6093 96.6105 10.956C96.9572 11.2853 97.1305 11.7793 97.1305 12.438V31.938C97.1305 33.2553 96.4718 33.914 95.1545 33.914ZM116.684 29.286C114.881 29.286 113.295 28.896 111.926 28.116C110.574 27.3187 109.517 26.2093 108.754 24.788C108.009 23.3667 107.636 21.7113 107.636 19.822C107.636 18.3833 107.844 17.092 108.26 15.948C108.693 14.7867 109.309 13.7987 110.106 12.984C110.903 12.152 111.857 11.5107 112.966 11.06C114.093 10.6093 115.332 10.384 116.684 10.384C118.521 10.384 120.116 10.774 121.468 11.554C122.82 12.334 123.869 13.4347 124.614 14.856C125.377 16.26 125.758 17.9067 125.758 19.796C125.758 21.2347 125.541 22.5347 125.108 23.696C124.675 24.8573 124.059 25.854 123.262 26.686C122.465 27.518 121.511 28.1593 120.402 28.61C119.293 29.0607 118.053 29.286 116.684 29.286ZM116.684 25.854C117.707 25.854 118.573 25.62 119.284 25.152C120.012 24.6667 120.567 23.9733 120.948 23.072C121.347 22.1533 121.546 21.07 121.546 19.822C121.546 17.9153 121.121 16.442 120.272 15.402C119.423 14.3447 118.227 13.816 116.684 13.816C115.679 13.816 114.812 14.05 114.084 14.518C113.356 14.986 112.801 15.6707 112.42 16.572C112.039 17.4733 111.848 18.5567 111.848 19.822C111.848 21.7113 112.273 23.1933 113.122 24.268C113.971 25.3253 115.159 25.854 116.684 25.854ZM130.981 29C130.305 29 129.785 28.818 129.421 28.454C129.057 28.09 128.875 27.57 128.875 26.894V12.776C128.875 12.1 129.057 11.58 129.421 11.216C129.785 10.852 130.305 10.67 130.981 10.67H136.051C139.189 10.67 141.607 11.4673 143.305 13.062C145.021 14.6393 145.879 16.8927 145.879 19.822C145.879 21.2953 145.654 22.604 145.203 23.748C144.77 24.8747 144.137 25.828 143.305 26.608C142.473 27.388 141.451 27.986 140.237 28.402C139.024 28.8007 137.629 29 136.051 29H130.981ZM132.905 25.698H135.817C136.805 25.698 137.663 25.5767 138.391 25.334C139.119 25.0913 139.726 24.7273 140.211 24.242C140.697 23.7567 141.061 23.15 141.303 22.422C141.546 21.6767 141.667 20.81 141.667 19.822C141.667 17.846 141.173 16.3813 140.185 15.428C139.215 14.4573 137.759 13.972 135.817 13.972H132.905V25.698ZM157.512 29.286C155.709 29.286 154.123 28.896 152.754 28.116C151.402 27.3187 150.345 26.2093 149.582 24.788C148.837 23.3667 148.464 21.7113 148.464 19.822C148.464 18.3833 148.672 17.092 149.088 15.948C149.521 14.7867 150.137 13.7987 150.934 12.984C151.731 12.152 152.685 11.5107 153.794 11.06C154.921 10.6093 156.16 10.384 157.512 10.384C159.349 10.384 160.944 10.774 162.296 11.554C163.648 12.334 164.697 13.4347 165.442 14.856C166.205 16.26 166.586 17.9067 166.586 19.796C166.586 21.2347 166.369 22.5347 165.936 23.696C165.503 24.8573 164.887 25.854 164.09 26.686C163.293 27.518 162.339 28.1593 161.23 28.61C160.121 29.0607 158.881 29.286 157.512 29.286ZM157.512 25.854C158.535 25.854 159.401 25.62 160.112 25.152C160.84 24.6667 161.395 23.9733 161.776 23.072C162.175 22.1533 162.374 21.07 162.374 19.822C162.374 17.9153 161.949 16.442 161.1 15.402C160.251 14.3447 159.055 13.816 157.512 13.816C156.507 13.816 155.64 14.05 154.912 14.518C154.184 14.986 153.629 15.6707 153.248 16.572C152.867 17.4733 152.676 18.5567 152.676 19.822C152.676 21.7113 153.101 23.1933 153.95 24.268C154.799 25.3253 155.987 25.854 157.512 25.854ZM171.575 29.234C170.969 29.234 170.501 29.0693 170.171 28.74C169.859 28.3933 169.703 27.908 169.703 27.284V12.464C169.703 11.8053 169.859 11.3027 170.171 10.956C170.501 10.6093 170.934 10.436 171.471 10.436C171.939 10.436 172.295 10.5313 172.537 10.722C172.797 10.8953 173.092 11.19 173.421 11.606L182.547 23.228H181.845V12.36C181.845 11.7533 182.001 11.2853 182.313 10.956C182.643 10.6093 183.111 10.436 183.717 10.436C184.324 10.436 184.783 10.6093 185.095 10.956C185.425 11.2853 185.589 11.7533 185.589 12.36V27.362C185.589 27.934 185.442 28.3933 185.147 28.74C184.853 29.0693 184.454 29.234 183.951 29.234C183.466 29.234 183.076 29.1387 182.781 28.948C182.504 28.7573 182.201 28.454 181.871 28.038L172.771 16.416H173.447V27.284C173.447 27.908 173.291 28.3933 172.979 28.74C172.667 29.0693 172.199 29.234 171.575 29.234ZM195.676 29.234C195.017 29.234 194.514 29.052 194.168 28.688C193.821 28.324 193.648 27.8127 193.648 27.154V13.998H189.046C188.508 13.998 188.092 13.8507 187.798 13.556C187.503 13.2613 187.356 12.854 187.356 12.334C187.356 11.7967 187.503 11.3893 187.798 11.112C188.092 10.8173 188.508 10.67 189.046 10.67H202.28C202.817 10.67 203.233 10.8173 203.528 11.112C203.822 11.3893 203.97 11.7967 203.97 12.334C203.97 12.854 203.822 13.2613 203.528 13.556C203.233 13.8507 202.817 13.998 202.28 13.998H197.678V27.154C197.678 27.8127 197.504 28.324 197.158 28.688C196.828 29.052 196.334 29.234 195.676 29.234ZM213.118 29.286C211.315 29.286 209.729 28.896 208.36 28.116C207.008 27.3187 205.95 26.2093 205.188 24.788C204.442 23.3667 204.07 21.7113 204.07 19.822C204.07 18.3833 204.278 17.092 204.694 15.948C205.127 14.7867 205.742 13.7987 206.54 12.984C207.337 12.152 208.29 11.5107 209.4 11.06C210.526 10.6093 211.766 10.384 213.118 10.384C214.955 10.384 216.55 10.774 217.902 11.554C219.254 12.334 220.302 13.4347 221.048 14.856C221.81 16.26 222.192 17.9067 222.192 19.796C222.192 21.2347 221.975 22.5347 221.542 23.696C221.108 24.8573 220.493 25.854 219.696 26.686C218.898 27.518 217.945 28.1593 216.836 28.61C215.726 29.0607 214.487 29.286 213.118 29.286ZM213.118 25.854C214.14 25.854 215.007 25.62 215.718 25.152C216.446 24.6667 217 23.9733 217.382 23.072C217.78 22.1533 217.98 21.07 217.98 19.822C217.98 17.9153 217.555 16.442 216.706 15.402C215.856 14.3447 214.66 13.816 213.118 13.816C212.112 13.816 211.246 14.05 210.518 14.518C209.79 14.986 209.235 15.6707 208.854 16.572C208.472 17.4733 208.282 18.5567 208.282 19.822C208.282 21.7113 208.706 23.1933 209.556 24.268C210.405 25.3253 211.592 25.854 213.118 25.854ZM227.363 29C226.704 29 226.193 28.818 225.829 28.454C225.482 28.09 225.309 27.5873 225.309 26.946V12.672C225.309 11.996 225.482 11.4847 225.829 11.138C226.176 10.7913 226.678 10.618 227.337 10.618C227.978 10.618 228.472 10.7913 228.819 11.138C229.166 11.4847 229.339 11.996 229.339 12.672V25.594H236.307C236.862 25.594 237.286 25.7413 237.581 26.036C237.893 26.3307 238.049 26.7467 238.049 27.284C238.049 27.8387 237.893 28.2633 237.581 28.558C237.286 28.8527 236.862 29 236.307 29H227.363ZM247.7 29.286C245.897 29.286 244.311 28.896 242.942 28.116C241.59 27.3187 240.532 26.2093 239.77 24.788C239.024 23.3667 238.652 21.7113 238.652 19.822C238.652 18.3833 238.86 17.092 239.276 15.948C239.709 14.7867 240.324 13.7987 241.122 12.984C241.919 12.152 242.872 11.5107 243.982 11.06C245.108 10.6093 246.348 10.384 247.7 10.384C249.537 10.384 251.132 10.774 252.484 11.554C253.836 12.334 254.884 13.4347 255.63 14.856C256.392 16.26 256.774 17.9067 256.774 19.796C256.774 21.2347 256.557 22.5347 256.124 23.696C255.69 24.8573 255.075 25.854 254.278 26.686C253.48 27.518 252.527 28.1593 251.418 28.61C250.308 29.0607 249.069 29.286 247.7 29.286ZM247.7 25.854C248.722 25.854 249.589 25.62 250.3 25.152C251.028 24.6667 251.582 23.9733 251.964 23.072C252.362 22.1533 252.562 21.07 252.562 19.822C252.562 17.9153 252.137 16.442 251.288 15.402C250.438 14.3447 249.242 13.816 247.7 13.816C246.694 13.816 245.828 14.05 245.1 14.518C244.372 14.986 243.817 15.6707 243.436 16.572C243.054 17.4733 242.864 18.5567 242.864 19.822C242.864 21.7113 243.288 23.1933 244.138 24.268C244.987 25.3253 246.174 25.854 247.7 25.854ZM268.965 29.286C266.902 29.286 265.152 28.896 263.713 28.116C262.292 27.336 261.208 26.244 260.463 24.84C259.718 23.436 259.345 21.7893 259.345 19.9C259.345 18.444 259.562 17.1353 259.995 15.974C260.446 14.7953 261.087 13.7987 261.919 12.984C262.768 12.152 263.791 11.5107 264.987 11.06C266.2 10.6093 267.57 10.384 269.095 10.384C270.031 10.384 270.967 10.488 271.903 10.696C272.839 10.904 273.74 11.2507 274.607 11.736C274.971 11.944 275.214 12.2127 275.335 12.542C275.474 12.854 275.508 13.192 275.439 13.556C275.387 13.9027 275.248 14.2147 275.023 14.492C274.815 14.752 274.538 14.9253 274.191 15.012C273.862 15.0813 273.48 15.012 273.047 14.804C272.475 14.492 271.868 14.2667 271.227 14.128C270.586 13.972 269.884 13.894 269.121 13.894C267.89 13.894 266.859 14.128 266.027 14.596C265.195 15.0467 264.571 15.7227 264.155 16.624C263.756 17.508 263.557 18.6 263.557 19.9C263.557 21.8587 264.025 23.3407 264.961 24.346C265.914 25.3513 267.318 25.854 269.173 25.854C269.797 25.854 270.438 25.7933 271.097 25.672C271.756 25.5507 272.406 25.3773 273.047 25.152L272.293 26.79V21.798H269.953C269.433 21.798 269.034 21.668 268.757 21.408C268.48 21.148 268.341 20.7927 268.341 20.342C268.341 19.874 268.48 19.5187 268.757 19.276C269.034 19.016 269.433 18.886 269.953 18.886H274.035C274.555 18.886 274.945 19.0247 275.205 19.302C275.482 19.5793 275.621 19.978 275.621 20.498V26.53C275.621 26.9807 275.534 27.362 275.361 27.674C275.188 27.986 274.893 28.2113 274.477 28.35C273.697 28.6273 272.822 28.8527 271.851 29.026C270.88 29.1993 269.918 29.286 268.965 29.286ZM281.216 29.234C280.557 29.234 280.054 29.052 279.708 28.688C279.361 28.324 279.188 27.8127 279.188 27.154V12.516C279.188 11.8573 279.361 11.346 279.708 10.982C280.054 10.618 280.557 10.436 281.216 10.436C281.857 10.436 282.351 10.618 282.698 10.982C283.044 11.346 283.218 11.8573 283.218 12.516V27.154C283.218 27.8127 283.044 28.324 282.698 28.688C282.368 29.052 281.874 29.234 281.216 29.234ZM287.427 29.234C286.941 29.234 286.543 29.1213 286.231 28.896C285.936 28.6707 285.745 28.3673 285.659 27.986C285.589 27.6047 285.667 27.18 285.893 26.712L292.549 12.126C292.826 11.5367 293.155 11.112 293.537 10.852C293.918 10.5747 294.36 10.436 294.863 10.436C295.365 10.436 295.807 10.5747 296.189 10.852C296.57 11.112 296.891 11.5367 297.151 12.126L303.859 26.712C304.084 27.18 304.162 27.6133 304.093 28.012C304.041 28.3933 303.867 28.6967 303.573 28.922C303.278 29.13 302.897 29.234 302.429 29.234C301.839 29.234 301.38 29.0953 301.051 28.818C300.739 28.5407 300.461 28.1073 300.219 27.518L298.659 23.904L300.271 25.022H289.429L291.041 23.904L289.507 27.518C289.247 28.1247 288.969 28.5667 288.675 28.844C288.397 29.104 287.981 29.234 287.427 29.234ZM294.811 14.96L291.483 22.89L290.781 21.876H298.919L298.217 22.89L294.863 14.96H294.811Z" fill="black"/>
</svg>
